<svg xmlns="http://www.w3.org/2000/svg" viewBox="0 0 64 64" role="img" aria-label="C sharp">
  <rect width="64" height="64" rx="14" fill="#68217a"/>
  <path fill="#fff" d="M27.5 44.5c-7 0-12.5-5.4-12.5-12.5s5.5-12.5 12.5-12.5c3.6 0 6.8 1.5 9.1 4l-3.8 3.5c-1.3-1.5-3.1-2.3-5.2-2.3-4 0-7 3.1-7 7.3s3 7.3 7 7.3c2.2 0 4-.9 5.4-2.5l3.8 3.5c-2.4 2.7-5.6 4.2-9.3 4.2z"/>
  <path fill="#fff" d="M43 23h3l-.5 5H49l.5-5h3l-.5 5h3v3h-3.3l-.4 4H54v3h-3l-.5 5h-3l.5-5h-3.5l-.5 5h-3l.5-5H39v-3h3l.4-4H40v-3h2.7zm2 8-.4 4H48l.4-4z"/>
</svg>
