<svg xmlns="http://www.w3.org/2000/svg" viewBox="0 0 900 560" role="img" aria-label="Unity Space Fighter Prototype">
  <rect width="900" height="560" fill="#10151f"/>
  <rect x="90" y="80" width="720" height="70" rx="10" fill="#222b36"/>
  <text x="126" y="125" font-family="Arial, Helvetica, sans-serif" font-size="30" font-weight="700" fill="#f5f7fa">Unity Space Fighter Prototype</text>
  <text x="612" y="125" font-family="Arial, Helvetica, sans-serif" font-size="22" fill="#47ba87">S: 100</text>
  <rect x="130" y="175" width="640" height="280" rx="6" fill="#323842"/>
  <rect x="130" y="175" width="640" height="85" fill="#4a5564"/>
  <rect x="130" y="370" width="640" height="85" fill="#20262e"/>
  <rect x="130" y="260" width="640" height="18" fill="#050607"/>
  <rect x="130" y="352" width="640" height="18" fill="#050607"/>
  <text x="148" y="230" font-family="Arial, Helvetica, sans-serif" font-size="22" fill="#d9e2ec">Flow Area</text>
  <text x="148" y="323" font-family="Arial, Helvetica, sans-serif" font-size="22" fill="#d9e2ec">Play Area</text>
  <text x="148" y="424" font-family="Arial, Helvetica, sans-serif" font-size="22" fill="#d9e2ec">Storage Area</text>
  <circle cx="450" cy="210" r="18" fill="#ff3b30"/>
  <circle cx="450" cy="290" r="18" fill="#2ecc71"/>
  <circle cx="520" cy="390" r="18" fill="#007aff"/>
  <circle cx="560" cy="410" r="18" fill="#808080"/>
  <circle cx="600" cy="430" r="18" fill="#ff3b30"/>
  <path d="M440 322 455 292 470 322z" fill="#f6f7fb"/>
  <path d="M450 280v-42" stroke="#f6f7fb" stroke-width="5" stroke-linecap="round" stroke-dasharray="8 8"/>
  <rect x="210" y="470" width="480" height="34" rx="17" fill="#47ba87"/>
  <text x="260" y="493" font-family="Arial, Helvetica, sans-serif" font-size="18" font-weight="700" fill="#10151f">Move, push particles, destroy debris, build scoring groups</text>
</svg>
